<?xml version="1.0" encoding="utf-8"?>
<!-- Generator: Adobe Illustrator 22.1.0, SVG Export Plug-In . SVG Version: 6.00 Build 0)  -->
<svg version="1.1" id="レイヤー_1" xmlns="http://www.w3.org/2000/svg" xmlns:xlink="http://www.w3.org/1999/xlink" x="0px"
	 y="0px" viewBox="0 0 160.9 32" width="110px" height="22px" style="enable-background:new 0 0 160.9 32;" xml:space="preserve">
<style type="text/css">
	.st0{fill:#191919;}
	.st1{fill:#46B2E8;}
</style>
<g>
	<path class="st0" d="M128.5,30.3l0-1.5c0.3-0.1,0.8-0.2,1.5-0.3c1.1-0.2,1.8-0.4,2.1-0.6c0.2-0.2,0.5-0.6,0.9-1.3l4.4-11.7
		l5.2-13.7c0.5,0,1,0,1.4,0h1l0.2,0.4l3.8,9.1c0.9,1.9,1.6,3.8,2.3,5.6c0.7,1.8,1.3,3.3,1.8,4.5c0.3,0.7,0.7,1.7,1.2,3.1
		c0.3,0.8,0.7,1.7,1.2,2.8c0.3,0.6,0.5,1,0.7,1.1c0.3,0.2,0.7,0.4,1.3,0.4c0.6,0.1,1.2,0.3,1.9,0.5c0.1,0.5,0.1,0.8,0.1,1.1
		c0,0.1,0,0.3,0,0.5c-1.1,0-2.3-0.1-3.6-0.2c-1.3-0.1-2.5-0.2-3.5-0.2c-1.2,0-2,0-2.5,0l-3.8,0.2l-1.1,0c0-0.5,0-1,0.1-1.5l2.5-0.5
		c0.7-0.2,1.2-0.3,1.3-0.4c0.1-0.1,0.2-0.3,0.2-0.5c0-0.2,0-0.4-0.1-0.6l-0.9-2.2l-1.7-4.3l-8.4,0c-0.3,0.7-1,2.4-1.9,5.2
		c-0.3,0.8-0.4,1.3-0.4,1.6c0,0.4,0.1,0.7,0.3,0.8c0.3,0.3,1,0.5,1.9,0.6c0.1,0,0.7,0.1,1.6,0.2c0,0.5,0,0.9,0,1.1
		c0,0.2,0,0.3,0,0.5c-0.9,0-3.1-0.1-6.5-0.4l-0.9,0.2c-1.1,0.2-2.1,0.3-3.1,0.3H128.5z M138.8,18c3.4,0,5.5,0.1,6.1,0.1l0.6,0
		c-0.5-1.3-1-2.8-1.7-4.6c-0.7-1.7-1.3-3.1-1.7-4L138.8,18z"/>
	<path class="st0" d="M98.9,30.5l0-1.8c0.4-0.1,0.8-0.2,1.3-0.2c1-0.1,1.7-0.3,2.3-0.6c0.2-0.3,0.3-0.7,0.4-1c0.1-0.8,0.2-2,0.2-3.6
		l0-9.4c0-1-0.1-3.5-0.2-7.6c0-1.1-0.1-1.8-0.2-2.1c-0.1-0.1-0.1-0.2-0.2-0.2c-0.3-0.2-0.7-0.3-1.3-0.3c-0.3,0-1-0.1-2.2-0.2L99,2
		l4.9-0.1l7.2-0.2l0.9,0c0.2,0,0.3,0,0.5,0c0.1,0,0.5,0,1.2,0h1.4c1.1,0,2.3,0.2,3.6,0.5c0.5,0.1,1.1,0.4,1.8,0.7
		c0.8,0.4,1.4,0.8,2,1.4c0.5,0.6,1,1.2,1.2,2c0.3,0.7,0.4,1.5,0.4,2.3c0,0.9-0.2,1.7-0.6,2.4c-0.4,0.7-1,1.4-1.8,2
		c-0.4,0.3-1.4,0.8-2.8,1.5c2.2,0.5,3.9,1.4,5.1,2.7c1.2,1.3,1.7,2.8,1.7,4.4c0,1-0.2,2-0.5,3c-0.3,0.8-0.7,1.5-1.4,2.2
		c-0.8,0.9-1.7,1.6-2.6,2c-0.9,0.5-2.2,0.8-3.9,1.1c-0.8,0.1-2.1,0.2-3.7,0.2l-3.7-0.1c-1.6,0-3.5,0.1-5.7,0.2
		C103.5,30.4,101.8,30.4,98.9,30.5z M109.2,13.8c0.6,0.1,1.3,0.1,2.1,0.1c2.2,0,3.9-0.4,5-1.2c1.1-0.8,1.7-2.2,1.7-4.2
		c0-1.4-0.5-2.6-1.6-3.5c-1.1-0.9-2.7-1.4-4.8-1.4c-0.6,0-1.4,0.1-2.5,0.2c0,0.3,0,0.8,0,1.5c0.1,1.2,0.1,3,0.1,5.2l0,1.8
		C109.2,12.7,109.2,13.2,109.2,13.8z M109.5,27.8c1,0.4,1.8,0.6,2.7,0.6c1.7,0,3-0.3,4.1-0.8c1.1-0.5,1.8-1.2,2.3-2.1
		c0.5-0.9,0.7-2.1,0.7-3.4c0-1.4-0.3-2.5-0.8-3.4c-0.7-1.2-1.6-2-2.7-2.4c-1-0.4-2.6-0.6-4.7-0.6c-0.9,0-1.6,0.1-1.9,0.2v2.7l0,3.3
		l0.1,5.1C109.3,27.3,109.3,27.5,109.5,27.8z"/>
	<path class="st0" d="M64,1.8c0.8,0,1.6,0.1,2.2,0.2c1.2,0.2,2.5,0.2,4,0.2c0.5,0,1.9,0,4.1-0.1c3.3-0.1,6.2-0.2,8.9-0.2l4,0
		c0.9,0,2.2,0.1,4,0.3c0.3,0.3,0.4,0.7,0.4,1.2v4.5l0.1,0.9c0,0.1,0,0.2,0,0.4l-0.9,0c-0.1,0-0.4,0-0.7,0c-0.1-0.3-0.3-0.7-0.5-1.3
		l-0.9-1.6c-0.3-0.7-0.8-1.3-1.4-2c-0.4-0.1-0.8-0.2-1.4-0.2c-0.1,0-0.6,0-1.3-0.1c-1.4-0.1-2.8-0.2-4.4-0.2c-1.8,0-3.4,0-4.8,0.1
		c0,0.4-0.1,1.8-0.1,4.3l0,3.7v2.8c0.4,0,0.7,0.1,1,0.1c2.6,0,4.5-0.1,5.6-0.2c1.1-0.1,1.8-0.2,2.1-0.4c0.3-0.2,0.5-0.5,0.7-1
		c0.1-0.3,0.4-1.4,0.8-3.2l0.3,0l1.3,0c0.1,1.3,0.1,2.3,0.1,3c0,1.5,0,2.5,0,3c0,0.4,0,0.8,0,1c0,0.4,0,1,0.1,1.9
		c0,0.9,0.1,1.5,0.1,2v0.5h-1.6c-0.1-0.2-0.2-0.7-0.3-1.5c-0.3-1.4-0.6-2.2-0.8-2.6c-0.2-0.3-0.5-0.5-0.9-0.6
		c-0.3-0.1-1.4-0.2-3.3-0.2c-2.2,0-3.9,0.1-5,0.2c0,0.4,0,0.6,0,0.8c0,1.8,0,3.2,0.1,4.4l0,4.8c0,0.6,0.2,0.9,0.6,1.1
		c0.6,0.3,2.4,0.5,5.5,0.5c2,0,3.8-0.2,5.2-0.5c1-0.2,1.9-0.7,2.6-1.5c1-1,1.8-2.4,2.5-4.2c0.5,0,0.8-0.1,1.1-0.1c0.2,0,0.4,0,0.7,0
		c0,0.4-0.1,0.7-0.1,0.9l-0.1,0.7l-0.8,4.2l-0.4,2.5c-1,0-1.7,0.1-2.3,0.1c-0.8,0-3-0.1-6.6-0.2c-2.5-0.1-5.5-0.2-9.1-0.2
		c-1.8,0-3.9,0.1-6.5,0.2h-0.9l-2.7,0.1v-1.5c0.3-0.1,0.8-0.2,1.7-0.2c1.5-0.2,2.6-0.4,3.2-0.7c0.2-0.4,0.2-1,0.2-1.6
		c0-0.3,0-0.7,0-1.3l0-0.7l-0.1-8.3l0-2.5l-0.1-3.5l0-2.5l-0.2-2.7c0-0.1,0-0.2,0-0.4c-0.1-0.2-0.4-0.3-0.7-0.3
		c-0.2,0-0.4-0.1-0.7-0.1c-0.8-0.2-1.6-0.3-2.4-0.3c-0.3,0-0.6,0-1-0.1L64,1.8z"/>
</g>
<path class="st1" d="M42.3,9.4c-2.8-5.3-8.8-8.5-15-7.5c-6.3,1-10.9,6-11.9,11.9c-8.8,2.3-14.5,5-14.2,7c0.3,2,6.7,2.7,15.7,2.1
	c2.8,5.3,8.8,8.4,15,7.4c6.2-1,10.9-5.9,11.9-11.8c8.8-2.3,14.6-5,14.2-7C57.7,9.6,51.4,8.8,42.3,9.4z M12,19.6
	c-0.1-0.5,1.1-1.2,3.2-1.9c0,0.2,0,0.5,0.1,0.7c0.1,0.7,0.3,1.3,0.5,1.9C13.5,20.3,12.1,20.1,12,19.6z M43.9,18
	c0,0-6.8,2.5-13.5,3.6c-6.3,1-13.6,1.1-13.6,1.1l-1-2.1c0,0,6.4,0,14.2-1.3c7.7-1.3,13.8-3.3,13.8-3.3L43.9,18z M44,15.7
	c0-0.6-0.1-1.2-0.2-1.9c0-0.2-0.1-0.4-0.1-0.6c2,0,3.2,0.3,3.3,0.7C47,14.4,45.9,15,44,15.7z"/>
</svg>
