<?xml version="1.0" encoding="utf-8"?>
<!-- Generator: Adobe Illustrator 22.0.0, SVG Export Plug-In . SVG Version: 6.00 Build 0)  -->
<svg version="1.1" xmlns="http://www.w3.org/2000/svg" xmlns:xlink="http://www.w3.org/1999/xlink" x="0px" y="0px"
	 viewBox="0 0 113 22" height="58" width="300" style="enable-background:new 0 0 113 22;" xml:space="preserve">
<style type="text/css">
	.st0{fill:#FFFFFF;}
</style>
<g id="レイヤー_2">
</g>
<g id="レイヤー_1">
	<g>
		<path class="st0" d="M90.1,21.1l0-1.1c0.2-0.1,0.5-0.1,1-0.2c0.8-0.2,1.3-0.3,1.5-0.4c0.2-0.1,0.4-0.4,0.6-0.9l3.1-8.2l3.7-9.6
			c0.3,0,0.7,0,1,0h0.7l0.1,0.3l2.7,6.4c0.6,1.4,1.1,2.7,1.6,3.9c0.5,1.3,0.9,2.3,1.3,3.1c0.2,0.5,0.5,1.2,0.8,2.2
			c0.2,0.5,0.5,1.2,0.8,2c0.2,0.4,0.4,0.7,0.5,0.8c0.2,0.1,0.5,0.3,0.9,0.3c0.4,0.1,0.9,0.2,1.4,0.4c0.1,0.3,0.1,0.6,0.1,0.8
			c0,0.1,0,0.2,0,0.3c-0.8,0-1.6,0-2.5-0.1c-0.9-0.1-1.7-0.1-2.5-0.1c-0.8,0-1.4,0-1.8,0l-2.6,0.1l-0.8,0c0-0.4,0-0.7,0-1l1.7-0.4
			c0.5-0.1,0.8-0.2,0.9-0.3c0.1-0.1,0.2-0.2,0.2-0.4c0-0.1,0-0.3-0.1-0.4l-0.6-1.5l-1.2-3l-5.9,0c-0.2,0.5-0.7,1.7-1.4,3.6
			c-0.2,0.6-0.3,0.9-0.3,1.1c0,0.3,0.1,0.5,0.2,0.6c0.2,0.2,0.7,0.3,1.4,0.4c0.1,0,0.5,0.1,1.1,0.2c0,0.4,0,0.6,0,0.8
			c0,0.1,0,0.2,0,0.4c-0.6,0-2.2-0.1-4.6-0.3L92.6,21c-0.8,0.1-1.5,0.2-2.2,0.2H90.1z M97.4,12.5c2.4,0,3.8,0,4.2,0l0.4,0
			c-0.3-0.9-0.7-2-1.2-3.2c-0.5-1.2-0.9-2.2-1.2-2.8L97.4,12.5z"/>
		<path class="st0" d="M69.4,21.3l0-1.2c0.3-0.1,0.5-0.1,0.9-0.2c0.7-0.1,1.2-0.2,1.6-0.4c0.1-0.2,0.2-0.5,0.3-0.7
			c0.1-0.6,0.1-1.4,0.1-2.6l0-6.6c0-0.7,0-2.5-0.1-5.3c0-0.8-0.1-1.3-0.1-1.4c0-0.1-0.1-0.1-0.2-0.2c-0.2-0.1-0.5-0.2-0.9-0.2
			c-0.2,0-0.7-0.1-1.5-0.2l0-1.1l3.5-0.1L78,1l0.6,0c0.1,0,0.2,0,0.4,0c0.1,0,0.4,0,0.8,0h1c0.8,0,1.6,0.1,2.6,0.4
			c0.3,0.1,0.7,0.3,1.3,0.5c0.5,0.3,1,0.6,1.4,1c0.4,0.4,0.7,0.9,0.9,1.4c0.2,0.5,0.3,1,0.3,1.6c0,0.6-0.1,1.2-0.4,1.7
			c-0.3,0.5-0.7,1-1.3,1.4c-0.3,0.2-1,0.5-2,1c1.6,0.4,2.7,1,3.5,1.9c0.8,0.9,1.2,2,1.2,3.1c0,0.7-0.1,1.4-0.4,2.1
			c-0.2,0.6-0.5,1.1-1,1.6c-0.6,0.6-1.2,1.1-1.9,1.4c-0.7,0.3-1.6,0.6-2.7,0.8c-0.6,0.1-1.5,0.2-2.6,0.2L77,21c-1.1,0-2.4,0.1-4,0.2
			C72.6,21.2,71.4,21.2,69.4,21.3z M76.6,9.6c0.4,0.1,0.9,0.1,1.5,0.1c1.5,0,2.7-0.3,3.5-0.9c0.8-0.6,1.2-1.6,1.2-3
			c0-1-0.4-1.8-1.1-2.5c-0.8-0.7-1.9-1-3.4-1c-0.4,0-1,0.1-1.7,0.2c0,0.2,0,0.6,0,1c0.1,0.9,0.1,2.1,0.1,3.7l0,1.3
			C76.6,8.8,76.6,9.1,76.6,9.6z M76.8,19.4c0.7,0.3,1.3,0.4,1.9,0.4c1.2,0,2.1-0.2,2.9-0.5c0.7-0.4,1.3-0.9,1.6-1.5
			c0.3-0.6,0.5-1.4,0.5-2.4c0-1-0.2-1.8-0.6-2.4c-0.5-0.8-1.1-1.4-1.9-1.7c-0.7-0.3-1.8-0.4-3.3-0.4c-0.6,0-1.1,0-1.3,0.1V13l0,2.3
			l0,3.6C76.7,19,76.7,19.2,76.8,19.4z"/>
		<path class="st0" d="M44.9,1.2c0.6,0,1.1,0.1,1.5,0.1c0.8,0.1,1.8,0.2,2.8,0.2c0.4,0,1.3,0,2.9-0.1c2.3-0.1,4.4-0.1,6.2-0.1l2.8,0
			c0.6,0,1.6,0.1,2.8,0.2c0.2,0.2,0.3,0.5,0.3,0.8v3.2l0,0.6c0,0.1,0,0.2,0,0.3l-0.6,0c-0.1,0-0.3,0-0.5,0c-0.1-0.2-0.2-0.5-0.4-0.9
			l-0.6-1.1c-0.2-0.5-0.6-0.9-1-1.4c-0.3-0.1-0.6-0.1-1-0.1c-0.1,0-0.4,0-0.9-0.1c-1-0.1-2-0.1-3.1-0.1c-1.3,0-2.4,0-3.4,0.1
			c0,0.3,0,1.3,0,3l0,2.6v1.9c0.3,0,0.5,0,0.7,0c1.8,0,3.2,0,4-0.1c0.8-0.1,1.3-0.2,1.5-0.3c0.2-0.1,0.3-0.4,0.5-0.7
			c0.1-0.2,0.3-1,0.5-2.3l0.2,0l0.9,0C60.9,7.9,61,8.6,61,9c0,1.1,0,1.8,0,2.1c0,0.3,0,0.5,0,0.7c0,0.3,0,0.7,0,1.3
			c0,0.6,0,1.1,0,1.4v0.3h-1.1c0-0.2-0.1-0.5-0.2-1c-0.2-1-0.4-1.6-0.6-1.8c-0.1-0.2-0.3-0.3-0.6-0.4c-0.2-0.1-1-0.1-2.3-0.1
			c-1.6,0-2.7,0-3.5,0.1c0,0.3,0,0.4,0,0.5c0,1.2,0,2.3,0.1,3.1l0,3.3c0,0.4,0.1,0.7,0.4,0.8c0.4,0.2,1.7,0.3,3.9,0.3
			c1.4,0,2.6-0.1,3.6-0.3c0.7-0.1,1.3-0.5,1.8-1c0.7-0.7,1.3-1.7,1.7-2.9c0.3,0,0.6,0,0.8,0c0.1,0,0.3,0,0.5,0
			c0,0.3-0.1,0.5-0.1,0.6l-0.1,0.5l-0.6,2.9l-0.3,1.8c-0.7,0-1.2,0-1.6,0c-0.6,0-2.1-0.1-4.6-0.2C56.5,21,54.4,21,51.9,21
			c-1.2,0-2.8,0.1-4.6,0.2h-0.7l-1.9,0.1v-1.1c0.2-0.1,0.6-0.1,1.2-0.2c1.1-0.1,1.8-0.3,2.2-0.5c0.1-0.3,0.2-0.7,0.2-1.1
			c0-0.2,0-0.5,0-0.9l0-0.5l0-5.8l0-1.7l-0.1-2.5l0-1.7l-0.1-1.9c0-0.1,0-0.2,0-0.3c-0.1-0.1-0.3-0.2-0.5-0.2
			c-0.1,0-0.3-0.1-0.5-0.1c-0.6-0.1-1.2-0.2-1.7-0.2c-0.2,0-0.4,0-0.7-0.1L44.9,1.2z"/>
		<g>
			<path class="st0" d="M41.6,8c0-0.1,0-0.1-0.1-0.2c0-0.1,0-0.1,0-0.2C41.4,6.4,37.1,6,30.9,6.4c-2-4-6.4-6.5-11-5.8
				c-4.7,0.7-8.2,4.5-8.8,9c-6.4,1.6-10.6,3.5-10.4,4.8c0,0.1,0,0.1,0.1,0.2c0,0.1,0,0.1,0,0.2c0.2,1.3,4.9,1.7,11.5,1.1
				c2,3.8,6.3,6.1,10.9,5.4c4.6-0.7,8.1-4.3,8.8-8.7c-3.1,0.8-6.5,1.7-10.2,2.3c-3.3,0.5-6.5,0.7-9.4,1c-0.3-0.5-0.5-1-0.7-1.6
				c2.7-0.1,6.2-0.2,9.9-0.8c4.1-0.7,7.7-1.8,10.4-2.6c0,0.6,0,1.1-0.1,1.6C37.9,11,41.8,9.2,41.6,8z M8.6,13.6
				c0.2-0.4,1.1-0.8,2.5-1.3c0,0.1,0,0.2,0,0.4c0.1,0.5,0.2,1,0.3,1.4C9.9,14,8.9,13.9,8.6,13.6z M32,10.6c0-0.4,0-0.8-0.1-1.2
				c0-0.2-0.1-0.3-0.1-0.5c1.2,0,2,0.2,2.3,0.5C33.8,9.7,33.1,10.1,32,10.6z"/>
			<path class="st0" d="M31.9,12.7C31.9,12.7,31.9,12.6,31.9,12.7C31.9,12.6,31.9,12.6,31.9,12.7C31.9,12.6,31.9,12.6,31.9,12.7
				C31.9,12.6,31.9,12.6,31.9,12.7z"/>
		</g>
	</g>
</g>
</svg>
